<svg xmlns="http://www.w3.org/2000/svg" xmlns:xlink="http://www.w3.org/1999/xlink" width="500" zoomAndPan="magnify" viewBox="0 0 375 374.999991" height="500" preserveAspectRatio="xMidYMid meet" version="1.0"><defs><clipPath id="af728a62da"><path d="M 80.132812 72.054688 L 198.773438 72.054688 L 198.773438 215.835938 L 80.132812 215.835938 Z M 80.132812 72.054688 " clip-rule="nonzero"/></clipPath><clipPath id="004950db02"><path d="M 145.261719 76.332031 L 197.992188 201.824219 C 199.285156 204.902344 198.949219 208.421875 197.101562 211.203125 C 195.253906 213.980469 192.140625 215.652344 188.800781 215.652344 L 90.105469 215.652344 C 86.765625 215.652344 83.648438 213.980469 81.800781 211.203125 C 79.953125 208.421875 79.621094 204.902344 80.914062 201.824219 L 133.640625 76.332031 C 134.625 73.992188 136.914062 72.472656 139.453125 72.472656 C 141.988281 72.472656 144.28125 73.992188 145.261719 76.332031 Z M 145.261719 76.332031 " clip-rule="nonzero"/></clipPath><clipPath id="5d82c4f0b8"><path d="M 0.132812 0.238281 L 118.773438 0.238281 L 118.773438 143.761719 L 0.132812 143.761719 Z M 0.132812 0.238281 " clip-rule="nonzero"/></clipPath><clipPath id="e1c90da88f"><path d="M 65.261719 4.332031 L 117.992188 129.824219 C 119.285156 132.902344 118.949219 136.421875 117.101562 139.203125 C 115.253906 141.980469 112.140625 143.652344 108.800781 143.652344 L 10.105469 143.652344 C 6.765625 143.652344 3.648438 141.980469 1.800781 139.203125 C -0.046875 136.421875 -0.378906 132.902344 0.914062 129.824219 L 53.640625 4.332031 C 54.625 1.992188 56.914062 0.472656 59.453125 0.472656 C 61.988281 0.472656 64.28125 1.992188 65.261719 4.332031 Z M 65.261719 4.332031 " clip-rule="nonzero"/></clipPath><clipPath id="1ba00f4e41"><rect x="0" width="119" y="0" height="144"/></clipPath><clipPath id="b2b4c10b1e"><path d="M 176.222656 159.15625 L 294.867188 159.15625 L 294.867188 302.9375 L 176.222656 302.9375 Z M 176.222656 159.15625 " clip-rule="nonzero"/></clipPath><clipPath id="6685874cbd"><path d="M 229.734375 298.660156 L 177.007812 173.167969 C 175.714844 170.089844 176.046875 166.570312 177.894531 163.789062 C 179.742188 161.011719 182.859375 159.339844 186.195312 159.339844 L 284.894531 159.339844 C 288.230469 159.339844 291.347656 161.011719 293.195312 163.789062 C 295.042969 166.570312 295.375 170.089844 294.082031 173.167969 L 241.355469 298.660156 C 240.371094 301 238.082031 302.519531 235.546875 302.519531 C 233.007812 302.519531 230.71875 301 229.734375 298.660156 Z M 229.734375 298.660156 " clip-rule="nonzero"/></clipPath><clipPath id="90fbc8a8a5"><path d="M 0.222656 0.15625 L 118.867188 0.15625 L 118.867188 143.640625 L 0.222656 143.640625 Z M 0.222656 0.15625 " clip-rule="nonzero"/></clipPath><clipPath id="433f7ad97a"><path d="M 53.734375 139.660156 L 1.007812 14.167969 C -0.285156 11.089844 0.046875 7.570312 1.894531 4.789062 C 3.742188 2.011719 6.859375 0.339844 10.195312 0.339844 L 108.894531 0.339844 C 112.230469 0.339844 115.347656 2.011719 117.195312 4.789062 C 119.042969 7.570312 119.375 11.089844 118.082031 14.167969 L 65.355469 139.660156 C 64.371094 142 62.082031 143.519531 59.546875 143.519531 C 57.007812 143.519531 54.71875 142 53.734375 139.660156 Z M 53.734375 139.660156 " clip-rule="nonzero"/></clipPath><clipPath id="e3fe30b6f0"><rect x="0" width="119" y="0" height="144"/></clipPath><clipPath id="62eb382976"><path d="M 107.867188 159.347656 L 267.132812 159.347656 L 267.132812 215.652344 L 107.867188 215.652344 Z M 107.867188 159.347656 " clip-rule="nonzero"/></clipPath><clipPath id="f80483b8a9"><path d="M 0.867188 0.347656 L 160.132812 0.347656 L 160.132812 56.652344 L 0.867188 56.652344 Z M 0.867188 0.347656 " clip-rule="nonzero"/></clipPath><clipPath id="046576134d"><rect x="0" width="161" y="0" height="57"/></clipPath></defs><g clip-path="url(#af728a62da)"><g clip-path="url(#004950db02)"><g transform="matrix(1, 0, 0, 1, 80, 72)"><g clip-path="url(#1ba00f4e41)"><g clip-path="url(#5d82c4f0b8)"><g clip-path="url(#e1c90da88f)"><path fill="#1877f2" d="M -4.894531 -9.496094 L 123.800781 -9.496094 L 123.800781 143.835938 L -4.894531 143.835938 Z M -4.894531 -9.496094 " fill-opacity="1" fill-rule="nonzero"/></g></g></g></g></g></g><g clip-path="url(#b2b4c10b1e)"><g clip-path="url(#6685874cbd)"><g transform="matrix(1, 0, 0, 1, 176, 159)"><g clip-path="url(#e3fe30b6f0)"><g clip-path="url(#90fbc8a8a5)"><g clip-path="url(#433f7ad97a)"><path fill="#1877f2" d="M 123.894531 153.488281 L -4.804688 153.488281 L -4.804688 0.15625 L 123.894531 0.15625 Z M 123.894531 153.488281 " fill-opacity="1" fill-rule="nonzero"/></g></g></g></g></g></g><g clip-path="url(#62eb382976)"><g transform="matrix(1, 0, 0, 1, 107, 159)"><g clip-path="url(#046576134d)"><g clip-path="url(#f80483b8a9)"><path fill="#1877f2" d="M 0.867188 0.347656 L 160.105469 0.347656 L 160.105469 56.652344 L 0.867188 56.652344 Z M 0.867188 0.347656 " fill-opacity="1" fill-rule="nonzero"/></g></g></g></g></svg>