<svg xmlns="http://www.w3.org/2000/svg" xmlns:xlink="http://www.w3.org/1999/xlink" width="500" zoomAndPan="magnify" viewBox="0 0 375 374.999991" height="500" preserveAspectRatio="xMidYMid meet" version="1.0"><defs><clipPath id="f6fc519b87"><path d="M 63 41.921875 L 312 41.921875 L 312 332.921875 L 63 332.921875 Z M 63 41.921875 " clip-rule="nonzero"/></clipPath><clipPath id="109dc1a744"><path d="M 98.390625 124.625 L 195 124.625 L 195 211.308594 L 98.390625 211.308594 Z M 98.390625 124.625 " clip-rule="nonzero"/></clipPath><clipPath id="6953a48b38"><path d="M 154.304688 129.09375 L 193.84375 198.285156 C 195.382812 200.980469 195.375 204.289062 193.816406 206.976562 C 192.257812 209.660156 189.390625 211.308594 186.285156 211.308594 L 107.4375 211.308594 C 104.335938 211.308594 101.46875 209.660156 99.910156 206.976562 C 98.351562 204.289062 98.34375 200.980469 99.882812 198.285156 L 139.421875 129.09375 C 140.945312 126.421875 143.789062 124.773438 146.863281 124.773438 C 149.9375 124.773438 152.777344 126.421875 154.304688 129.09375 Z M 154.304688 129.09375 " clip-rule="nonzero"/></clipPath><clipPath id="30a5cf40c5"><path d="M 0.390625 0.625 L 97 0.625 L 97 87.308594 L 0.390625 87.308594 Z M 0.390625 0.625 " clip-rule="nonzero"/></clipPath><clipPath id="eeab6c883f"><path d="M 56.304688 5.09375 L 95.84375 74.285156 C 97.382812 76.980469 97.375 80.289062 95.816406 82.976562 C 94.257812 85.660156 91.390625 87.308594 88.285156 87.308594 L 9.4375 87.308594 C 6.335938 87.308594 3.46875 85.660156 1.910156 82.976562 C 0.351562 80.289062 0.34375 76.980469 1.882812 74.285156 L 41.421875 5.09375 C 42.945312 2.421875 45.789062 0.773438 48.863281 0.773438 C 51.9375 0.773438 54.777344 2.421875 56.304688 5.09375 Z M 56.304688 5.09375 " clip-rule="nonzero"/></clipPath><clipPath id="92d07e3311"><rect x="0" width="97" y="0" height="88"/></clipPath><clipPath id="459c090055"><path d="M 180 163.6875 L 276.605469 163.6875 L 276.605469 250.371094 L 180 250.371094 Z M 180 163.6875 " clip-rule="nonzero"/></clipPath><clipPath id="e540d6fff9"><path d="M 220.691406 245.902344 L 181.152344 176.710938 C 179.613281 174.015625 179.621094 170.707031 181.179688 168.023438 C 182.738281 165.335938 185.605469 163.6875 188.707031 163.6875 L 267.558594 163.6875 C 270.660156 163.6875 273.527344 165.335938 275.085938 168.023438 C 276.644531 170.707031 276.652344 174.015625 275.113281 176.710938 L 235.574219 245.902344 C 234.046875 248.574219 231.207031 250.222656 228.132812 250.222656 C 225.058594 250.222656 222.214844 248.574219 220.691406 245.902344 Z M 220.691406 245.902344 " clip-rule="nonzero"/></clipPath><clipPath id="2e3b78c7f5"><path d="M 0 0.6875 L 96.605469 0.6875 L 96.605469 87.320312 L 0 87.320312 Z M 0 0.6875 " clip-rule="nonzero"/></clipPath><clipPath id="8e58758642"><path d="M 40.691406 82.902344 L 1.152344 13.710938 C -0.386719 11.015625 -0.378906 7.707031 1.179688 5.023438 C 2.738281 2.335938 5.605469 0.6875 8.707031 0.6875 L 87.558594 0.6875 C 90.660156 0.6875 93.527344 2.335938 95.085938 5.023438 C 96.644531 7.707031 96.652344 11.015625 95.113281 13.710938 L 55.574219 82.902344 C 54.046875 85.574219 51.207031 87.222656 48.132812 87.222656 C 45.058594 87.222656 42.214844 85.574219 40.691406 82.902344 Z M 40.691406 82.902344 " clip-rule="nonzero"/></clipPath><clipPath id="10eefae7f6"><rect x="0" width="97" y="0" height="88"/></clipPath><clipPath id="4944fbdcfe"><path d="M 120.148438 163.691406 L 254.851562 163.691406 L 254.851562 211.308594 L 120.148438 211.308594 Z M 120.148438 163.691406 " clip-rule="nonzero"/></clipPath><clipPath id="84cc0230ba"><path d="M 0.148438 0.691406 L 134.851562 0.691406 L 134.851562 48.308594 L 0.148438 48.308594 Z M 0.148438 0.691406 " clip-rule="nonzero"/></clipPath><clipPath id="7c53f8f261"><rect x="0" width="135" y="0" height="49"/></clipPath></defs><path fill="#1877f2" d="M 303.386719 75.1875 C 284.667969 56.46875 187.449219 46.808594 187.449219 46.808594 C 187.449219 46.808594 90.230469 56.46875 71.511719 75.1875 C 71.511719 75.1875 60.558594 175.917969 78.757812 227.351562 C 106.535156 305.851562 187.449219 328.195312 187.449219 328.195312 C 187.449219 328.195312 268.363281 305.851562 296.144531 227.351562 C 314.34375 175.917969 303.386719 75.1875 303.386719 75.1875 " fill-opacity="1" fill-rule="nonzero"/><g clip-path="url(#f6fc519b87)"><path fill="#ffffff" d="M 303.386719 75.1875 L 306.816406 71.757812 C 305.308594 70.253906 303.554688 68.929688 301.585938 67.683594 C 297.902344 65.359375 293.449219 63.324219 288.410156 61.433594 C 279.601562 58.140625 268.996094 55.324219 257.964844 52.898438 C 241.425781 49.269531 223.953125 46.550781 210.585938 44.726562 C 197.226562 42.90625 187.96875 41.984375 187.929688 41.980469 C 187.644531 41.949219 187.253906 41.949219 186.96875 41.980469 C 186.894531 41.988281 162.507812 44.410156 135.648438 49.203125 C 122.210938 51.601562 108.164062 54.589844 96.125 58.214844 C 90.105469 60.023438 84.582031 62 79.835938 64.191406 C 77.457031 65.289062 75.277344 66.4375 73.308594 67.683594 C 71.34375 68.929688 69.589844 70.253906 68.082031 71.757812 C 67.304688 72.535156 66.808594 73.570312 66.691406 74.664062 C 66.679688 74.769531 63.394531 104.953125 63.394531 140.902344 C 63.394531 155.835938 63.960938 171.769531 65.582031 186.996094 C 67.207031 202.230469 69.867188 216.75 74.1875 228.96875 C 81.355469 249.226562 91.964844 265.890625 103.808594 279.421875 C 121.582031 299.726562 142.085938 313.03125 158.164062 321.300781 C 174.246094 329.566406 185.921875 332.800781 186.160156 332.871094 C 187 333.101562 187.898438 333.101562 188.738281 332.871094 C 189.058594 332.777344 209.707031 327.0625 234.019531 311.28125 C 246.171875 303.382812 259.242188 292.957031 271.089844 279.421875 C 282.933594 265.890625 293.542969 249.226562 300.710938 228.96875 C 305.03125 216.75 307.691406 202.230469 309.316406 187 C 310.9375 171.773438 311.503906 155.84375 311.503906 140.910156 C 311.503906 104.957031 308.21875 74.769531 308.207031 74.664062 C 308.085938 73.570312 307.59375 72.535156 306.816406 71.757812 L 303.386719 75.1875 L 298.566406 75.710938 L 298.570312 75.789062 C 298.753906 77.480469 301.808594 106.644531 301.804688 140.910156 C 301.808594 155.59375 301.242188 171.21875 299.671875 185.976562 C 298.105469 200.726562 295.511719 214.621094 291.570312 225.734375 C 284.847656 244.726562 274.933594 260.296875 263.789062 273.035156 C 247.085938 292.128906 227.597656 304.808594 212.300781 312.675781 C 204.652344 316.605469 198.054688 319.335938 193.402344 321.074219 C 191.078125 321.941406 189.234375 322.5625 187.992188 322.960938 C 187.367188 323.160156 186.894531 323.304688 186.585938 323.394531 C 186.433594 323.445312 186.316406 323.476562 186.242188 323.496094 L 186.167969 323.515625 L 186.15625 323.519531 L 186.988281 326.523438 L 186.160156 323.519531 L 186.15625 323.519531 L 186.988281 326.523438 L 186.160156 323.519531 L 187.449219 328.195312 L 188.738281 323.519531 C 188.433594 323.441406 168.582031 317.832031 145.617188 302.792969 C 134.136719 295.273438 121.878906 285.410156 110.847656 272.734375 C 99.816406 260.054688 90 244.578125 83.332031 225.734375 C 79.390625 214.621094 76.792969 200.722656 75.226562 185.972656 C 73.65625 171.214844 73.089844 155.589844 73.09375 140.902344 C 73.09375 123.21875 73.90625 106.894531 74.714844 95 C 75.121094 89.058594 75.527344 84.222656 75.828125 80.878906 C 75.980469 79.207031 76.109375 77.910156 76.199219 77.03125 C 76.242188 76.59375 76.277344 76.257812 76.300781 76.039062 C 76.3125 75.925781 76.320312 75.84375 76.328125 75.789062 L 76.332031 75.710938 L 71.511719 75.1875 L 74.941406 78.617188 C 75.777344 77.777344 76.972656 76.839844 78.488281 75.882812 C 81.328125 74.085938 85.253906 72.246094 89.890625 70.519531 C 98 67.476562 108.261719 64.730469 119.015625 62.375 C 135.152344 58.828125 152.417969 56.132812 165.621094 54.335938 C 172.222656 53.4375 177.808594 52.757812 181.742188 52.308594 C 183.707031 52.082031 185.261719 51.910156 186.316406 51.800781 C 186.847656 51.742188 187.25 51.699219 187.523438 51.671875 C 187.796875 51.644531 187.929688 51.628906 187.929688 51.628906 L 187.449219 46.808594 L 186.96875 51.628906 C 186.96875 51.628906 187.058594 51.640625 187.234375 51.65625 C 190.019531 51.941406 214.316406 54.492188 240.027344 59.199219 C 252.878906 61.550781 266.089844 64.449219 277.042969 67.820312 C 282.511719 69.507812 287.421875 71.3125 291.382812 73.175781 C 293.363281 74.101562 295.101562 75.046875 296.550781 75.972656 C 298 76.894531 299.148438 77.804688 299.953125 78.617188 L 303.386719 75.1875 L 298.566406 75.710938 L 303.386719 75.1875 " fill-opacity="1" fill-rule="nonzero"/></g><g clip-path="url(#109dc1a744)"><g clip-path="url(#6953a48b38)"><g transform="matrix(1, 0, 0, 1, 98, 124)"><g clip-path="url(#92d07e3311)"><g clip-path="url(#30a5cf40c5)"><g clip-path="url(#eeab6c883f)"><path fill="#ffffff" d="M -5.5625 -7.929688 L 103.445312 -7.929688 L 103.445312 87.308594 L -5.5625 87.308594 Z M -5.5625 -7.929688 " fill-opacity="1" fill-rule="nonzero"/></g></g></g></g></g></g><g clip-path="url(#459c090055)"><g clip-path="url(#e540d6fff9)"><g transform="matrix(1, 0, 0, 1, 180, 163)"><g clip-path="url(#10eefae7f6)"><g clip-path="url(#2e3b78c7f5)"><g clip-path="url(#8e58758642)"><path fill="#ffffff" d="M 102.558594 95.929688 L -6.449219 95.929688 L -6.449219 0.6875 L 102.558594 0.6875 Z M 102.558594 95.929688 " fill-opacity="1" fill-rule="nonzero"/></g></g></g></g></g></g><g clip-path="url(#4944fbdcfe)"><g transform="matrix(1, 0, 0, 1, 120, 163)"><g clip-path="url(#7c53f8f261)"><g clip-path="url(#84cc0230ba)"><path fill="#ffffff" d="M 0.148438 0.691406 L 134.828125 0.691406 L 134.828125 48.308594 L 0.148438 48.308594 Z M 0.148438 0.691406 " fill-opacity="1" fill-rule="nonzero"/></g></g></g></g></svg>