<svg xmlns="http://www.w3.org/2000/svg" xmlns:xlink="http://www.w3.org/1999/xlink" width="500" zoomAndPan="magnify" viewBox="0 0 375 374.999991" height="500" preserveAspectRatio="xMidYMid meet" version="1.0"><defs><clipPath id="60d0c9eea7"><path d="M 98.390625 124.625 L 195 124.625 L 195 211.308594 L 98.390625 211.308594 Z M 98.390625 124.625 " clip-rule="nonzero"/></clipPath><clipPath id="85c104cdd1"><path d="M 154.304688 129.09375 L 193.84375 198.285156 C 195.382812 200.980469 195.375 204.289062 193.816406 206.976562 C 192.257812 209.660156 189.390625 211.308594 186.285156 211.308594 L 107.4375 211.308594 C 104.335938 211.308594 101.46875 209.660156 99.910156 206.976562 C 98.351562 204.289062 98.34375 200.980469 99.882812 198.285156 L 139.421875 129.09375 C 140.945312 126.421875 143.789062 124.773438 146.863281 124.773438 C 149.9375 124.773438 152.777344 126.421875 154.304688 129.09375 Z M 154.304688 129.09375 " clip-rule="nonzero"/></clipPath><clipPath id="eeaa115819"><path d="M 0.390625 0.625 L 97 0.625 L 97 87.308594 L 0.390625 87.308594 Z M 0.390625 0.625 " clip-rule="nonzero"/></clipPath><clipPath id="694e84fbdc"><path d="M 56.304688 5.09375 L 95.84375 74.285156 C 97.382812 76.980469 97.375 80.289062 95.816406 82.976562 C 94.257812 85.660156 91.390625 87.308594 88.285156 87.308594 L 9.4375 87.308594 C 6.335938 87.308594 3.46875 85.660156 1.910156 82.976562 C 0.351562 80.289062 0.34375 76.980469 1.882812 74.285156 L 41.421875 5.09375 C 42.945312 2.421875 45.789062 0.773438 48.863281 0.773438 C 51.9375 0.773438 54.777344 2.421875 56.304688 5.09375 Z M 56.304688 5.09375 " clip-rule="nonzero"/></clipPath><clipPath id="b32db9d82d"><rect x="0" width="97" y="0" height="88"/></clipPath><clipPath id="26309c1993"><path d="M 180 163.6875 L 276.605469 163.6875 L 276.605469 250.371094 L 180 250.371094 Z M 180 163.6875 " clip-rule="nonzero"/></clipPath><clipPath id="9c7ac7661a"><path d="M 220.691406 245.902344 L 181.152344 176.710938 C 179.613281 174.015625 179.621094 170.707031 181.179688 168.023438 C 182.738281 165.335938 185.605469 163.6875 188.707031 163.6875 L 267.558594 163.6875 C 270.660156 163.6875 273.527344 165.335938 275.085938 168.023438 C 276.644531 170.707031 276.652344 174.015625 275.113281 176.710938 L 235.574219 245.902344 C 234.046875 248.574219 231.207031 250.222656 228.132812 250.222656 C 225.058594 250.222656 222.214844 248.574219 220.691406 245.902344 Z M 220.691406 245.902344 " clip-rule="nonzero"/></clipPath><clipPath id="f9413765ff"><path d="M 0 0.6875 L 96.605469 0.6875 L 96.605469 87.320312 L 0 87.320312 Z M 0 0.6875 " clip-rule="nonzero"/></clipPath><clipPath id="ec5dbe9805"><path d="M 40.691406 82.902344 L 1.152344 13.710938 C -0.386719 11.015625 -0.378906 7.707031 1.179688 5.023438 C 2.738281 2.335938 5.605469 0.6875 8.707031 0.6875 L 87.558594 0.6875 C 90.660156 0.6875 93.527344 2.335938 95.085938 5.023438 C 96.644531 7.707031 96.652344 11.015625 95.113281 13.710938 L 55.574219 82.902344 C 54.046875 85.574219 51.207031 87.222656 48.132812 87.222656 C 45.058594 87.222656 42.214844 85.574219 40.691406 82.902344 Z M 40.691406 82.902344 " clip-rule="nonzero"/></clipPath><clipPath id="0167950980"><rect x="0" width="97" y="0" height="88"/></clipPath><clipPath id="0446deed5f"><path d="M 120.148438 163.691406 L 254.851562 163.691406 L 254.851562 211.308594 L 120.148438 211.308594 Z M 120.148438 163.691406 " clip-rule="nonzero"/></clipPath><clipPath id="312532ff97"><path d="M 0.148438 0.691406 L 134.851562 0.691406 L 134.851562 48.308594 L 0.148438 48.308594 Z M 0.148438 0.691406 " clip-rule="nonzero"/></clipPath><clipPath id="47493135a0"><rect x="0" width="135" y="0" height="49"/></clipPath></defs><g clip-path="url(#60d0c9eea7)"><g clip-path="url(#85c104cdd1)"><g transform="matrix(1, 0, 0, 1, 98, 124)"><g clip-path="url(#b32db9d82d)"><g clip-path="url(#eeaa115819)"><g clip-path="url(#694e84fbdc)"><path fill="#3cc88b" d="M -5.5625 -7.929688 L 103.445312 -7.929688 L 103.445312 87.308594 L -5.5625 87.308594 Z M -5.5625 -7.929688 " fill-opacity="1" fill-rule="nonzero"/></g></g></g></g></g></g><g clip-path="url(#26309c1993)"><g clip-path="url(#9c7ac7661a)"><g transform="matrix(1, 0, 0, 1, 180, 163)"><g clip-path="url(#0167950980)"><g clip-path="url(#f9413765ff)"><g clip-path="url(#ec5dbe9805)"><path fill="#3cc88b" d="M 102.558594 95.929688 L -6.449219 95.929688 L -6.449219 0.6875 L 102.558594 0.6875 Z M 102.558594 95.929688 " fill-opacity="1" fill-rule="nonzero"/></g></g></g></g></g></g><g clip-path="url(#0446deed5f)"><g transform="matrix(1, 0, 0, 1, 120, 163)"><g clip-path="url(#47493135a0)"><g clip-path="url(#312532ff97)"><path fill="#3cc88b" d="M 0.148438 0.691406 L 134.828125 0.691406 L 134.828125 48.308594 L 0.148438 48.308594 Z M 0.148438 0.691406 " fill-opacity="1" fill-rule="nonzero"/></g></g></g></g></svg>