<svg xmlns="http://www.w3.org/2000/svg" xmlns:xlink="http://www.w3.org/1999/xlink" width="500" zoomAndPan="magnify" viewBox="0 0 375 374.999991" height="500" preserveAspectRatio="xMidYMid meet" version="1.0"><defs><clipPath id="aa2641e10e"><path d="M 57.445312 47.152344 L 202.234375 47.152344 L 202.234375 221.503906 L 57.445312 221.503906 Z M 57.445312 47.152344 " clip-rule="nonzero"/></clipPath><clipPath id="f29ea0f396"><path d="M 135.652344 51.328125 L 201.25 207.457031 C 202.542969 210.53125 202.210938 214.054688 200.363281 216.832031 C 198.515625 219.613281 195.398438 221.285156 192.0625 221.285156 L 67.621094 221.285156 C 64.28125 221.285156 61.164062 219.613281 59.316406 216.832031 C 57.46875 214.054688 57.136719 210.53125 58.429688 207.457031 L 124.03125 51.328125 C 125.011719 48.988281 127.304688 47.46875 129.839844 47.46875 C 132.378906 47.46875 134.667969 48.988281 135.652344 51.328125 Z M 135.652344 51.328125 " clip-rule="nonzero"/></clipPath><clipPath id="ad8e16fc1c"><path d="M 0.445312 0.28125 L 145.234375 0.28125 L 145.234375 174.503906 L 0.445312 174.503906 Z M 0.445312 0.28125 " clip-rule="nonzero"/></clipPath><clipPath id="d819e77d6d"><path d="M 78.652344 4.328125 L 144.25 160.457031 C 145.542969 163.53125 145.210938 167.054688 143.363281 169.832031 C 141.515625 172.613281 138.398438 174.285156 135.0625 174.285156 L 10.621094 174.285156 C 7.28125 174.285156 4.164062 172.613281 2.316406 169.832031 C 0.46875 167.054688 0.136719 163.53125 1.429688 160.457031 L 67.03125 4.328125 C 68.011719 1.988281 70.304688 0.46875 72.839844 0.46875 C 75.378906 0.46875 77.667969 1.988281 78.652344 4.328125 Z M 78.652344 4.328125 " clip-rule="nonzero"/></clipPath><clipPath id="bbb9f07378"><rect x="0" width="146" y="0" height="175"/></clipPath><clipPath id="5510a26796"><path d="M 172.761719 153.484375 L 317.554688 153.484375 L 317.554688 327.835938 L 172.761719 327.835938 Z M 172.761719 153.484375 " clip-rule="nonzero"/></clipPath><clipPath id="d05139fa0d"><path d="M 239.347656 323.660156 L 173.746094 167.535156 C 172.453125 164.457031 172.789062 160.9375 174.636719 158.15625 C 176.480469 155.375 179.597656 153.703125 182.9375 153.703125 L 307.378906 153.703125 C 310.71875 153.703125 313.832031 155.375 315.679688 158.15625 C 317.527344 160.9375 317.863281 164.457031 316.570312 167.535156 L 250.96875 323.660156 C 249.984375 326 247.695312 327.523438 245.15625 327.523438 C 242.621094 327.523438 240.332031 326 239.347656 323.660156 Z M 239.347656 323.660156 " clip-rule="nonzero"/></clipPath><clipPath id="c976cfd2aa"><path d="M 0.761719 0.601562 L 145.554688 0.601562 L 145.554688 174.601562 L 0.761719 174.601562 Z M 0.761719 0.601562 " clip-rule="nonzero"/></clipPath><clipPath id="abf547d61e"><path d="M 67.347656 170.660156 L 1.746094 14.535156 C 0.453125 11.457031 0.789062 7.9375 2.636719 5.15625 C 4.480469 2.375 7.597656 0.703125 10.9375 0.703125 L 135.378906 0.703125 C 138.71875 0.703125 141.832031 2.375 143.679688 5.15625 C 145.527344 7.9375 145.863281 11.457031 144.570312 14.535156 L 78.96875 170.660156 C 77.984375 173 75.695312 174.523438 73.15625 174.523438 C 70.621094 174.523438 68.332031 173 67.347656 170.660156 Z M 67.347656 170.660156 " clip-rule="nonzero"/></clipPath><clipPath id="ec4938f4bc"><rect x="0" width="146" y="0" height="175"/></clipPath><clipPath id="1cc188c89c"><path d="M 91.9375 153.714844 L 283.0625 153.714844 L 283.0625 221.285156 L 91.9375 221.285156 Z M 91.9375 153.714844 " clip-rule="nonzero"/></clipPath><clipPath id="702930efce"><path d="M 0.9375 0.714844 L 192.0625 0.714844 L 192.0625 68.285156 L 0.9375 68.285156 Z M 0.9375 0.714844 " clip-rule="nonzero"/></clipPath><clipPath id="c331f7271d"><rect x="0" width="193" y="0" height="69"/></clipPath></defs><g clip-path="url(#aa2641e10e)"><g clip-path="url(#f29ea0f396)"><g transform="matrix(1, 0, 0, 1, 57, 47)"><g clip-path="url(#bbb9f07378)"><g clip-path="url(#ad8e16fc1c)"><g clip-path="url(#d819e77d6d)"><path fill="#3cc88b" d="M -4.378906 -9.5 L 150.0625 -9.5 L 150.0625 174.503906 L -4.378906 174.503906 Z M -4.378906 -9.5 " fill-opacity="1" fill-rule="nonzero"/></g></g></g></g></g></g><g clip-path="url(#5510a26796)"><g clip-path="url(#d05139fa0d)"><g transform="matrix(1, 0, 0, 1, 172, 153)"><g clip-path="url(#ec4938f4bc)"><g clip-path="url(#c976cfd2aa)"><g clip-path="url(#abf547d61e)"><path fill="#3cc88b" d="M 150.378906 184.488281 L -4.0625 184.488281 L -4.0625 0.484375 L 150.378906 0.484375 Z M 150.378906 184.488281 " fill-opacity="1" fill-rule="nonzero"/></g></g></g></g></g></g><g clip-path="url(#1cc188c89c)"><g transform="matrix(1, 0, 0, 1, 91, 153)"><g clip-path="url(#c331f7271d)"><g clip-path="url(#702930efce)"><path fill="#3cc88b" d="M 0.9375 0.714844 L 192.03125 0.714844 L 192.03125 68.285156 L 0.9375 68.285156 Z M 0.9375 0.714844 " fill-opacity="1" fill-rule="nonzero"/></g></g></g></g></svg>