<svg xmlns="http://www.w3.org/2000/svg" xmlns:xlink="http://www.w3.org/1999/xlink" width="500" zoomAndPan="magnify" viewBox="0 0 375 374.999991" height="500" preserveAspectRatio="xMidYMid meet" version="1.0"><defs><clipPath id="e42f6f05b8"><path d="M 23.277344 9.480469 L 207 9.480469 L 207 229.875 L 23.277344 229.875 Z M 23.277344 9.480469 " clip-rule="nonzero"/></clipPath><clipPath id="bfe89c6bd5"><path d="M 121.171875 13.496094 L 206.164062 215.773438 C 207.457031 218.851562 207.125 222.371094 205.277344 225.148438 C 203.429688 227.929688 200.3125 229.601562 196.972656 229.601562 L 33.75 229.601562 C 30.410156 229.601562 27.296875 227.929688 25.449219 225.148438 C 23.601562 222.371094 23.265625 218.851562 24.558594 215.773438 L 109.550781 13.496094 C 110.535156 11.15625 112.824219 9.632812 115.363281 9.632812 C 117.898438 9.632812 120.191406 11.15625 121.171875 13.496094 Z M 121.171875 13.496094 " clip-rule="nonzero"/></clipPath><clipPath id="e06adb61a3"><path d="M 0.277344 0.601562 L 184 0.601562 L 184 220.679688 L 0.277344 220.679688 Z M 0.277344 0.601562 " clip-rule="nonzero"/></clipPath><clipPath id="1b79fa0915"><path d="M 98.171875 4.496094 L 183.164062 206.773438 C 184.457031 209.851562 184.125 213.371094 182.277344 216.148438 C 180.429688 218.929688 177.3125 220.601562 173.972656 220.601562 L 10.75 220.601562 C 7.410156 220.601562 4.296875 218.929688 2.449219 216.148438 C 0.601562 213.371094 0.265625 209.851562 1.558594 206.773438 L 86.550781 4.496094 C 87.535156 2.15625 89.824219 0.632812 92.363281 0.632812 C 94.898438 0.632812 97.191406 2.15625 98.171875 4.496094 Z M 98.171875 4.496094 " clip-rule="nonzero"/></clipPath><clipPath id="80612e2cb4"><rect x="0" width="184" y="0" height="221"/></clipPath><clipPath id="bb852524e2"><path d="M 168 145 L 351.714844 145 L 351.714844 365.1875 L 168 365.1875 Z M 168 145 " clip-rule="nonzero"/></clipPath><clipPath id="49f8981a81"><path d="M 253.820312 361.171875 L 168.832031 158.894531 C 167.539062 155.816406 167.871094 152.296875 169.71875 149.515625 C 171.566406 146.734375 174.683594 145.066406 178.019531 145.066406 L 341.246094 145.066406 C 344.582031 145.066406 347.699219 146.734375 349.546875 149.515625 C 351.394531 152.296875 351.726562 155.816406 350.433594 158.894531 L 265.441406 361.171875 C 264.460938 363.507812 262.167969 365.03125 259.632812 365.03125 C 257.09375 365.03125 254.804688 363.507812 253.820312 361.171875 Z M 253.820312 361.171875 " clip-rule="nonzero"/></clipPath><clipPath id="07382c9b01"><path d="M 0 0 L 183.714844 0 L 183.714844 220.039062 L 0 220.039062 Z M 0 0 " clip-rule="nonzero"/></clipPath><clipPath id="ebf2431131"><path d="M 85.820312 216.171875 L 0.832031 13.894531 C -0.460938 10.816406 -0.128906 7.296875 1.71875 4.515625 C 3.566406 1.734375 6.683594 0.0664062 10.019531 0.0664062 L 173.246094 0.0664062 C 176.582031 0.0664062 179.699219 1.734375 181.546875 4.515625 C 183.394531 7.296875 183.726562 10.816406 182.433594 13.894531 L 97.441406 216.171875 C 96.460938 218.507812 94.167969 220.03125 91.632812 220.03125 C 89.09375 220.03125 86.804688 218.507812 85.820312 216.171875 Z M 85.820312 216.171875 " clip-rule="nonzero"/></clipPath><clipPath id="5bbee9900a"><rect x="0" width="184" y="0" height="221"/></clipPath><clipPath id="a8da14417f"><path d="M 67.941406 145.066406 L 307.058594 145.066406 L 307.058594 229.601562 L 67.941406 229.601562 Z M 67.941406 145.066406 " clip-rule="nonzero"/></clipPath><clipPath id="b4c8dcc8a0"><path d="M 0.941406 0.0664062 L 240.058594 0.0664062 L 240.058594 84.601562 L 0.941406 84.601562 Z M 0.941406 0.0664062 " clip-rule="nonzero"/></clipPath><clipPath id="35e9d48c63"><rect x="0" width="241" y="0" height="85"/></clipPath></defs><g clip-path="url(#e42f6f05b8)"><g clip-path="url(#bfe89c6bd5)"><g transform="matrix(1, 0, 0, 1, 23, 9)"><g clip-path="url(#80612e2cb4)"><g clip-path="url(#e06adb61a3)"><g clip-path="url(#1b79fa0915)"><path fill="#3cc88b" d="M -4.25 -9.332031 L 188.972656 -9.332031 L 188.972656 220.875 L -4.25 220.875 Z M -4.25 -9.332031 " fill-opacity="1" fill-rule="nonzero"/></g></g></g></g></g></g><g clip-path="url(#bb852524e2)"><g clip-path="url(#49f8981a81)"><g transform="matrix(1, 0, 0, 1, 168, 145)"><g clip-path="url(#5bbee9900a)"><g clip-path="url(#07382c9b01)"><g clip-path="url(#ebf2431131)"><rect x="-250.5" width="540" fill="#3cc88b" height="539.999987" y="-227.499998" fill-opacity="1"/></g></g></g></g></g></g><g clip-path="url(#a8da14417f)"><g transform="matrix(1, 0, 0, 1, 67, 145)"><g clip-path="url(#35e9d48c63)"><g clip-path="url(#b4c8dcc8a0)"><path fill="#3cc88b" d="M 0.941406 0.0664062 L 240.019531 0.0664062 L 240.019531 84.601562 L 0.941406 84.601562 Z M 0.941406 0.0664062 " fill-opacity="1" fill-rule="nonzero"/></g></g></g></g></svg>