<svg xmlns="http://www.w3.org/2000/svg" xmlns:xlink="http://www.w3.org/1999/xlink" width="500" zoomAndPan="magnify" viewBox="0 0 375 374.999991" height="500" preserveAspectRatio="xMidYMid meet" version="1.0"><defs><clipPath id="9c2163ca4d"><path d="M 80.082031 72 L 198.78125 72 L 198.78125 215.847656 L 80.082031 215.847656 Z M 80.082031 72 " clip-rule="nonzero"/></clipPath><clipPath id="39e4caeb82"><path d="M 145.242188 76.273438 L 198 201.835938 C 199.292969 204.914062 198.957031 208.433594 197.109375 211.214844 C 195.261719 213.996094 192.148438 215.664062 188.808594 215.664062 L 90.050781 215.664062 C 86.710938 215.664062 83.597656 213.996094 81.75 211.214844 C 79.902344 208.433594 79.566406 204.914062 80.859375 201.835938 L 133.621094 76.273438 C 134.601562 73.933594 136.890625 72.414062 139.429688 72.414062 C 141.96875 72.414062 144.257812 73.933594 145.242188 76.273438 Z M 145.242188 76.273438 " clip-rule="nonzero"/></clipPath><clipPath id="e2f9bf2feb"><path d="M 0.0820312 0.238281 L 118.78125 0.238281 L 118.78125 143.761719 L 0.0820312 143.761719 Z M 0.0820312 0.238281 " clip-rule="nonzero"/></clipPath><clipPath id="dbbbdd4a73"><path d="M 65.242188 4.273438 L 118 129.835938 C 119.292969 132.914062 118.957031 136.433594 117.109375 139.214844 C 115.261719 141.996094 112.148438 143.664062 108.808594 143.664062 L 10.050781 143.664062 C 6.710938 143.664062 3.597656 141.996094 1.75 139.214844 C -0.0976562 136.433594 -0.433594 132.914062 0.859375 129.835938 L 53.621094 4.273438 C 54.601562 1.933594 56.890625 0.414062 59.429688 0.414062 C 61.96875 0.414062 64.257812 1.933594 65.242188 4.273438 Z M 65.242188 4.273438 " clip-rule="nonzero"/></clipPath><clipPath id="d270ac8e6e"><rect x="0" width="119" y="0" height="144"/></clipPath><clipPath id="43e9b60903"><path d="M 176.214844 159.140625 L 294.914062 159.140625 L 294.914062 302.988281 L 176.214844 302.988281 Z M 176.214844 159.140625 " clip-rule="nonzero"/></clipPath><clipPath id="2b5864184a"><path d="M 229.753906 298.714844 L 176.996094 173.152344 C 175.703125 170.074219 176.039062 166.554688 177.882812 163.773438 C 179.730469 160.996094 182.847656 159.324219 186.1875 159.324219 L 284.945312 159.324219 C 288.28125 159.324219 291.398438 160.996094 293.246094 163.773438 C 295.09375 166.554688 295.425781 170.074219 294.132812 173.152344 L 241.375 298.714844 C 240.394531 301.054688 238.101562 302.578125 235.566406 302.578125 C 233.027344 302.578125 230.738281 301.054688 229.753906 298.714844 Z M 229.753906 298.714844 " clip-rule="nonzero"/></clipPath><clipPath id="85d3bd1a74"><path d="M 0.214844 0.140625 L 118.914062 0.140625 L 118.914062 143.640625 L 0.214844 143.640625 Z M 0.214844 0.140625 " clip-rule="nonzero"/></clipPath><clipPath id="fe0439be12"><path d="M 53.753906 139.714844 L 0.996094 14.152344 C -0.296875 11.074219 0.0390625 7.554688 1.882812 4.773438 C 3.730469 1.996094 6.847656 0.324219 10.1875 0.324219 L 108.945312 0.324219 C 112.28125 0.324219 115.398438 1.996094 117.246094 4.773438 C 119.09375 7.554688 119.425781 11.074219 118.132812 14.152344 L 65.375 139.714844 C 64.394531 142.054688 62.101562 143.578125 59.566406 143.578125 C 57.027344 143.578125 54.738281 142.054688 53.753906 139.714844 Z M 53.753906 139.714844 " clip-rule="nonzero"/></clipPath><clipPath id="879373fb86"><rect x="0" width="119" y="0" height="144"/></clipPath><clipPath id="9d99b7191e"><path d="M 107.832031 159.335938 L 267.167969 159.335938 L 267.167969 215.664062 L 107.832031 215.664062 Z M 107.832031 159.335938 " clip-rule="nonzero"/></clipPath><clipPath id="4f48fe41ed"><path d="M 0.832031 0.335938 L 160.167969 0.335938 L 160.167969 56.664062 L 0.832031 56.664062 Z M 0.832031 0.335938 " clip-rule="nonzero"/></clipPath><clipPath id="e53a42aa70"><rect x="0" width="161" y="0" height="57"/></clipPath></defs><g clip-path="url(#9c2163ca4d)"><g clip-path="url(#39e4caeb82)"><g transform="matrix(1, 0, 0, 1, 80, 72)"><g clip-path="url(#d270ac8e6e)"><g clip-path="url(#e2f9bf2feb)"><g clip-path="url(#dbbbdd4a73)"><path fill="#3cc88b" d="M -4.949219 -9.554688 L 123.808594 -9.554688 L 123.808594 143.847656 L -4.949219 143.847656 Z M -4.949219 -9.554688 " fill-opacity="1" fill-rule="nonzero"/></g></g></g></g></g></g><g clip-path="url(#43e9b60903)"><g clip-path="url(#2b5864184a)"><g transform="matrix(1, 0, 0, 1, 176, 159)"><g clip-path="url(#879373fb86)"><g clip-path="url(#85d3bd1a74)"><g clip-path="url(#fe0439be12)"><path fill="#3cc88b" d="M 123.945312 153.546875 L -4.8125 153.546875 L -4.8125 0.140625 L 123.945312 0.140625 Z M 123.945312 153.546875 " fill-opacity="1" fill-rule="nonzero"/></g></g></g></g></g></g><g clip-path="url(#9d99b7191e)"><g transform="matrix(1, 0, 0, 1, 107, 159)"><g clip-path="url(#e53a42aa70)"><g clip-path="url(#4f48fe41ed)"><path fill="#3cc88b" d="M 0.832031 0.335938 L 160.144531 0.335938 L 160.144531 56.664062 L 0.832031 56.664062 Z M 0.832031 0.335938 " fill-opacity="1" fill-rule="nonzero"/></g></g></g></g></svg>